# xmcd
# 
# Track frame offsets:
#     150
#     20233
#     37920
#     57835
#     77160
#     93781
#     114090
#     130811
#     149999
#     168589
#     193738
#     212361
#     230192
#     267743
# 
# Disc length: 4440
# 
# Revision: 14
# Processed by: cddbd v1.5.2PL0 Copyright (c) Steve Scherf et al.
# Submitted via: fre:ac v1.0.31
# 
DISCID=cc11560e
DTITLE=Velvet Revolver - Contraband
DYEAR=2004
DGENRE=Rock
TTITLE0=Sucker Train Blues
TTITLE1=Do It For The Kids
TTITLE2=Big Machine
TTITLE3=Illegal i Song
TTITLE4=Spectacle
TTITLE5=Fall To Pieces
TTITLE6=Headspace
TTITLE7=Superhuman
TTITLE8=Set Me Free
TTITLE9=You Got No Right
TTITLE10=Slither
TTITLE11=Dirty Little Thing
TTITLE12=Loving The Alien
TTITLE13=Data
EXTD=
EXTT0=
EXTT1=
EXTT2=
EXTT3=
EXTT4=
EXTT5=
EXTT6=
EXTT7=
EXTT8=
EXTT9=
EXTT10=
EXTT11=
EXTT12=
EXTT13=
PLAYORDER=
